<svg xmlns="http://www.w3.org/2000/svg" viewBox="0 0 160 100" role="img" aria-label="KurdiBird">
  <defs>
    <linearGradient id="body" x1="0" y1="0" x2="1" y2="1">
      <stop offset="0" stop-color="#FFD766"/>
      <stop offset="1" stop-color="#E9B93F"/>
    </linearGradient>
  </defs>
  <g stroke="#172B3A" stroke-width="4" stroke-linejoin="round" stroke-linecap="round">
    <path d="M36 57 C22 44 12 41 5 47 C12 54 22 58 38 62 Z" fill="#D94A4A"/>
    <path d="M36 62 C21 61 10 65 5 72 C16 75 28 71 41 66 Z" fill="#F4C95D"/>
    <path d="M40 66 C28 72 22 79 22 87 C33 84 42 77 48 68 Z" fill="#5C9B69"/>
    <path d="M34 33 C39 17 57 8 81 9 C105 10 124 22 128 42 C132 61 119 78 98 84 C73 91 47 83 34 69 C24 58 24 43 34 33 Z" fill="url(#body)"/>
    <path d="M62 12 L67 1 L74 13 Z" fill="#F4C95D"/>
    <path d="M76 11 L86 1 L89 14 Z" fill="#F4C95D"/>
    <path d="M90 14 L101 6 L99 20 Z" fill="#F4C95D"/>
    <path d="M45 50 C31 39 22 37 18 44 C22 52 31 58 44 59 Z" fill="#B62F39"/>
    <path d="M48 52 C34 47 23 51 23 59 C30 65 39 65 51 60 Z" fill="#D94A4A"/>
    <path d="M52 56 C40 58 34 66 38 73 C47 74 55 68 62 60 Z" fill="#E95B61"/>
    <path d="M40 45 C45 47 49 51 53 55 C56 58 60 59 64 58 C61 51 55 46 48 42 Z" fill="#5C9B69" stroke-width="2.5"/>
    <path d="M62 68 L71 77 L62 86 L53 77 Z" fill="#D94A4A" stroke-width="2"/>
    <path d="M62 73 L66 77 L62 81 L58 77 Z" fill="#5C9B69" stroke-width="1.5"/>
    <circle cx="101" cy="34" r="13" fill="#FFF8E7"/>
    <circle cx="105" cy="35" r="5.4" fill="#172B3A" stroke="none"/>
    <circle cx="107" cy="32" r="2.1" fill="#FFFFFF" stroke="none"/>
    <path d="M124 38 L149 48 L124 58 Z" fill="#F4A84E"/>
    <path d="M124 48 L145 50" fill="none" stroke="#B86F25" stroke-width="2"/>
  </g>
</svg>
